<mxfile host="app.diagrams.net" modified="2023-03-08T22:25:56.464Z" agent="5.0 (Macintosh; Intel Mac OS X 10_15_7) AppleWebKit/605.1.15 (KHTML, like Gecko) Version/15.1 Safari/605.1.15" etag="-Suim7-B9NW6IWnbCRBo" version="21.0.2" type="github">
  <diagram id="R2lEEEUBdFMjLlhIrx00" name="Page-1">
    <mxGraphModel dx="896" dy="647" grid="1" gridSize="10" guides="1" tooltips="1" connect="1" arrows="1" fold="1" page="1" pageScale="1" pageWidth="850" pageHeight="1100" math="0" shadow="0" extFonts="Permanent Marker^https://fonts.googleapis.com/css?family=Permanent+Marker">
      <root>
        <mxCell id="0" />
        <mxCell id="1" parent="0" />
        <mxCell id="zXdkISqvHevH8ZzprFHM-39" value="Студент" style="swimlane;fontStyle=0;childLayout=stackLayout;horizontal=1;startSize=26;horizontalStack=0;resizeParent=1;resizeParentMax=0;resizeLast=0;collapsible=1;marginBottom=0;align=center;fontSize=14;fillColor=#dae8fc;strokeColor=#6c8ebf;" parent="1" vertex="1">
          <mxGeometry x="80" y="90" width="160" height="190" as="geometry" />
        </mxCell>
        <mxCell id="zXdkISqvHevH8ZzprFHM-40" value="&lt;u&gt;ID&lt;/u&gt;" style="text;strokeColor=none;fillColor=none;spacingLeft=4;spacingRight=4;overflow=hidden;rotatable=0;points=[[0,0.5],[1,0.5]];portConstraint=eastwest;fontSize=12;whiteSpace=wrap;html=1;" parent="zXdkISqvHevH8ZzprFHM-39" vertex="1">
          <mxGeometry y="26" width="160" height="24" as="geometry" />
        </mxCell>
        <mxCell id="zXdkISqvHevH8ZzprFHM-41" value="ФИО" style="text;strokeColor=none;fillColor=none;spacingLeft=4;spacingRight=4;overflow=hidden;rotatable=0;points=[[0,0.5],[1,0.5]];portConstraint=eastwest;fontSize=12;whiteSpace=wrap;html=1;" parent="zXdkISqvHevH8ZzprFHM-39" vertex="1">
          <mxGeometry y="50" width="160" height="20" as="geometry" />
        </mxCell>
        <mxCell id="zXdkISqvHevH8ZzprFHM-42" value="День рождения" style="text;strokeColor=none;fillColor=none;spacingLeft=4;spacingRight=4;overflow=hidden;rotatable=0;points=[[0,0.5],[1,0.5]];portConstraint=eastwest;fontSize=12;whiteSpace=wrap;html=1;" parent="zXdkISqvHevH8ZzprFHM-39" vertex="1">
          <mxGeometry y="70" width="160" height="20" as="geometry" />
        </mxCell>
        <mxCell id="zXdkISqvHevH8ZzprFHM-84" value="Факультет" style="text;strokeColor=none;fillColor=none;spacingLeft=4;spacingRight=4;overflow=hidden;rotatable=0;points=[[0,0.5],[1,0.5]];portConstraint=eastwest;fontSize=12;whiteSpace=wrap;html=1;" parent="zXdkISqvHevH8ZzprFHM-39" vertex="1">
          <mxGeometry y="90" width="160" height="20" as="geometry" />
        </mxCell>
        <mxCell id="zXdkISqvHevH8ZzprFHM-85" value="Специальность" style="text;strokeColor=none;fillColor=none;spacingLeft=4;spacingRight=4;overflow=hidden;rotatable=0;points=[[0,0.5],[1,0.5]];portConstraint=eastwest;fontSize=12;whiteSpace=wrap;html=1;" parent="zXdkISqvHevH8ZzprFHM-39" vertex="1">
          <mxGeometry y="110" width="160" height="20" as="geometry" />
        </mxCell>
        <mxCell id="zXdkISqvHevH8ZzprFHM-86" value="Курс" style="text;strokeColor=none;fillColor=none;spacingLeft=4;spacingRight=4;overflow=hidden;rotatable=0;points=[[0,0.5],[1,0.5]];portConstraint=eastwest;fontSize=12;whiteSpace=wrap;html=1;" parent="zXdkISqvHevH8ZzprFHM-39" vertex="1">
          <mxGeometry y="130" width="160" height="20" as="geometry" />
        </mxCell>
        <mxCell id="zXdkISqvHevH8ZzprFHM-87" value="Группа" style="text;strokeColor=none;fillColor=none;spacingLeft=4;spacingRight=4;overflow=hidden;rotatable=0;points=[[0,0.5],[1,0.5]];portConstraint=eastwest;fontSize=12;whiteSpace=wrap;html=1;" parent="zXdkISqvHevH8ZzprFHM-39" vertex="1">
          <mxGeometry y="150" width="160" height="20" as="geometry" />
        </mxCell>
        <mxCell id="zXdkISqvHevH8ZzprFHM-88" value="Номер зачетки" style="text;strokeColor=none;fillColor=none;spacingLeft=4;spacingRight=4;overflow=hidden;rotatable=0;points=[[0,0.5],[1,0.5]];portConstraint=eastwest;fontSize=12;whiteSpace=wrap;html=1;" parent="zXdkISqvHevH8ZzprFHM-39" vertex="1">
          <mxGeometry y="170" width="160" height="20" as="geometry" />
        </mxCell>
        <mxCell id="zXdkISqvHevH8ZzprFHM-79" value="Зачетная книжка" style="swimlane;fontStyle=0;childLayout=stackLayout;horizontal=1;startSize=26;horizontalStack=0;resizeParent=1;resizeParentMax=0;resizeLast=0;collapsible=1;marginBottom=0;align=center;fontSize=14;fillColor=#f8cecc;strokeColor=#b85450;" parent="1" vertex="1">
          <mxGeometry x="320" y="210" width="160" height="50" as="geometry" />
        </mxCell>
        <mxCell id="zXdkISqvHevH8ZzprFHM-80" value="&lt;u&gt;Номер зачетки&lt;/u&gt;" style="text;strokeColor=none;fillColor=none;spacingLeft=4;spacingRight=4;overflow=hidden;rotatable=0;points=[[0,0.5],[1,0.5]];portConstraint=eastwest;fontSize=12;whiteSpace=wrap;html=1;" parent="zXdkISqvHevH8ZzprFHM-79" vertex="1">
          <mxGeometry y="26" width="160" height="24" as="geometry" />
        </mxCell>
        <mxCell id="zXdkISqvHevH8ZzprFHM-91" value="Зачет" style="swimlane;fontStyle=0;childLayout=stackLayout;horizontal=1;startSize=26;horizontalStack=0;resizeParent=1;resizeParentMax=0;resizeLast=0;collapsible=1;marginBottom=0;align=center;fontSize=14;fillColor=#fff2cc;strokeColor=#d6b656;" parent="1" vertex="1">
          <mxGeometry x="290" y="330" width="160" height="106" as="geometry" />
        </mxCell>
        <mxCell id="zXdkISqvHevH8ZzprFHM-93" value="&lt;u&gt;Название дисциплины&lt;/u&gt;" style="text;strokeColor=none;fillColor=none;spacingLeft=4;spacingRight=4;overflow=hidden;rotatable=0;points=[[0,0.5],[1,0.5]];portConstraint=eastwest;fontSize=12;whiteSpace=wrap;html=1;" parent="zXdkISqvHevH8ZzprFHM-91" vertex="1">
          <mxGeometry y="26" width="160" height="20" as="geometry" />
        </mxCell>
        <mxCell id="zXdkISqvHevH8ZzprFHM-99" value="Дифф. / Недифф." style="text;strokeColor=none;fillColor=none;spacingLeft=4;spacingRight=4;overflow=hidden;rotatable=0;points=[[0,0.5],[1,0.5]];portConstraint=eastwest;fontSize=12;whiteSpace=wrap;html=1;" parent="zXdkISqvHevH8ZzprFHM-91" vertex="1">
          <mxGeometry y="46" width="160" height="20" as="geometry" />
        </mxCell>
        <mxCell id="aSY4xwyYl6IpOgJZGuyS-13" value="Количество часов" style="text;strokeColor=none;fillColor=none;spacingLeft=4;spacingRight=4;overflow=hidden;rotatable=0;points=[[0,0.5],[1,0.5]];portConstraint=eastwest;fontSize=12;whiteSpace=wrap;html=1;" vertex="1" parent="zXdkISqvHevH8ZzprFHM-91">
          <mxGeometry y="66" width="160" height="20" as="geometry" />
        </mxCell>
        <mxCell id="zXdkISqvHevH8ZzprFHM-94" value="Преподаватель" style="text;strokeColor=none;fillColor=none;spacingLeft=4;spacingRight=4;overflow=hidden;rotatable=0;points=[[0,0.5],[1,0.5]];portConstraint=eastwest;fontSize=12;whiteSpace=wrap;html=1;" parent="zXdkISqvHevH8ZzprFHM-91" vertex="1">
          <mxGeometry y="86" width="160" height="20" as="geometry" />
        </mxCell>
        <mxCell id="zXdkISqvHevH8ZzprFHM-102" value="Экзамен" style="swimlane;fontStyle=0;childLayout=stackLayout;horizontal=1;startSize=26;horizontalStack=0;resizeParent=1;resizeParentMax=0;resizeLast=0;collapsible=1;marginBottom=0;align=center;fontSize=14;fillColor=#e1d5e7;strokeColor=#9673a6;" parent="1" vertex="1">
          <mxGeometry x="810" y="350" width="160" height="90" as="geometry" />
        </mxCell>
        <mxCell id="zXdkISqvHevH8ZzprFHM-104" value="&lt;u&gt;Название дисциплины&amp;nbsp;&lt;/u&gt;" style="text;strokeColor=none;fillColor=none;spacingLeft=4;spacingRight=4;overflow=hidden;rotatable=0;points=[[0,0.5],[1,0.5]];portConstraint=eastwest;fontSize=12;whiteSpace=wrap;html=1;" parent="zXdkISqvHevH8ZzprFHM-102" vertex="1">
          <mxGeometry y="26" width="160" height="20" as="geometry" />
        </mxCell>
        <mxCell id="aSY4xwyYl6IpOgJZGuyS-14" value="Количество часов" style="text;strokeColor=none;fillColor=none;spacingLeft=4;spacingRight=4;overflow=hidden;rotatable=0;points=[[0,0.5],[1,0.5]];portConstraint=eastwest;fontSize=12;whiteSpace=wrap;html=1;" vertex="1" parent="zXdkISqvHevH8ZzprFHM-102">
          <mxGeometry y="46" width="160" height="24" as="geometry" />
        </mxCell>
        <mxCell id="zXdkISqvHevH8ZzprFHM-105" value="Преподаватель" style="text;strokeColor=none;fillColor=none;spacingLeft=4;spacingRight=4;overflow=hidden;rotatable=0;points=[[0,0.5],[1,0.5]];portConstraint=eastwest;fontSize=12;whiteSpace=wrap;html=1;" parent="zXdkISqvHevH8ZzprFHM-102" vertex="1">
          <mxGeometry y="70" width="160" height="20" as="geometry" />
        </mxCell>
        <mxCell id="zXdkISqvHevH8ZzprFHM-109" value="Экзаменатор" style="swimlane;fontStyle=0;childLayout=stackLayout;horizontal=1;startSize=26;horizontalStack=0;resizeParent=1;resizeParentMax=0;resizeLast=0;collapsible=1;marginBottom=0;align=center;fontSize=14;fillColor=#ffe6cc;strokeColor=#d79b00;" parent="1" vertex="1">
          <mxGeometry x="550" y="520" width="160" height="110" as="geometry" />
        </mxCell>
        <mxCell id="zXdkISqvHevH8ZzprFHM-110" value="&lt;u&gt;ID&lt;/u&gt;" style="text;strokeColor=none;fillColor=none;spacingLeft=4;spacingRight=4;overflow=hidden;rotatable=0;points=[[0,0.5],[1,0.5]];portConstraint=eastwest;fontSize=12;whiteSpace=wrap;html=1;" parent="zXdkISqvHevH8ZzprFHM-109" vertex="1">
          <mxGeometry y="26" width="160" height="24" as="geometry" />
        </mxCell>
        <mxCell id="zXdkISqvHevH8ZzprFHM-111" value="ФИО" style="text;strokeColor=none;fillColor=none;spacingLeft=4;spacingRight=4;overflow=hidden;rotatable=0;points=[[0,0.5],[1,0.5]];portConstraint=eastwest;fontSize=12;whiteSpace=wrap;html=1;" parent="zXdkISqvHevH8ZzprFHM-109" vertex="1">
          <mxGeometry y="50" width="160" height="20" as="geometry" />
        </mxCell>
        <mxCell id="zXdkISqvHevH8ZzprFHM-112" value="Кафедра" style="text;strokeColor=none;fillColor=none;spacingLeft=4;spacingRight=4;overflow=hidden;rotatable=0;points=[[0,0.5],[1,0.5]];portConstraint=eastwest;fontSize=12;whiteSpace=wrap;html=1;" parent="zXdkISqvHevH8ZzprFHM-109" vertex="1">
          <mxGeometry y="70" width="160" height="20" as="geometry" />
        </mxCell>
        <mxCell id="zXdkISqvHevH8ZzprFHM-113" value="Звание" style="text;strokeColor=none;fillColor=none;spacingLeft=4;spacingRight=4;overflow=hidden;rotatable=0;points=[[0,0.5],[1,0.5]];portConstraint=eastwest;fontSize=12;whiteSpace=wrap;html=1;" parent="zXdkISqvHevH8ZzprFHM-109" vertex="1">
          <mxGeometry y="90" width="160" height="20" as="geometry" />
        </mxCell>
        <mxCell id="aSY4xwyYl6IpOgJZGuyS-7" value="" style="fontSize=12;html=1;endArrow=ERmandOne;startArrow=ERmandOne;rounded=0;exitX=0;exitY=0.5;exitDx=0;exitDy=0;" edge="1" parent="1" source="zXdkISqvHevH8ZzprFHM-80">
          <mxGeometry width="100" height="100" relative="1" as="geometry">
            <mxPoint x="320" y="270" as="sourcePoint" />
            <mxPoint x="240" y="273" as="targetPoint" />
          </mxGeometry>
        </mxCell>
        <mxCell id="aSY4xwyYl6IpOgJZGuyS-10" value="" style="fontSize=12;html=1;endArrow=ERoneToMany;rounded=0;entryX=0;entryY=0.5;entryDx=0;entryDy=0;exitX=1;exitY=0.5;exitDx=0;exitDy=0;" edge="1" parent="1" source="aSY4xwyYl6IpOgJZGuyS-17" target="zXdkISqvHevH8ZzprFHM-104">
          <mxGeometry width="100" height="100" relative="1" as="geometry">
            <mxPoint x="480" y="380" as="sourcePoint" />
            <mxPoint x="250" y="456" as="targetPoint" />
          </mxGeometry>
        </mxCell>
        <mxCell id="aSY4xwyYl6IpOgJZGuyS-11" value="" style="fontSize=12;html=1;endArrow=ERoneToMany;rounded=0;exitX=-0.001;exitY=0.821;exitDx=0;exitDy=0;exitPerimeter=0;entryX=0.556;entryY=1;entryDx=0;entryDy=0;entryPerimeter=0;" edge="1" parent="1" source="zXdkISqvHevH8ZzprFHM-110" target="zXdkISqvHevH8ZzprFHM-94">
          <mxGeometry width="100" height="100" relative="1" as="geometry">
            <mxPoint x="330" y="390" as="sourcePoint" />
            <mxPoint x="190" y="537" as="targetPoint" />
          </mxGeometry>
        </mxCell>
        <mxCell id="aSY4xwyYl6IpOgJZGuyS-12" value="" style="fontSize=12;html=1;endArrow=ERoneToMany;rounded=0;exitX=0.999;exitY=0.94;exitDx=0;exitDy=0;exitPerimeter=0;" edge="1" parent="1" source="zXdkISqvHevH8ZzprFHM-110" target="zXdkISqvHevH8ZzprFHM-105">
          <mxGeometry width="100" height="100" relative="1" as="geometry">
            <mxPoint x="320" y="586" as="sourcePoint" />
            <mxPoint x="640" y="490" as="targetPoint" />
          </mxGeometry>
        </mxCell>
        <mxCell id="aSY4xwyYl6IpOgJZGuyS-15" value="Сдача дисциплины" style="swimlane;fontStyle=0;childLayout=stackLayout;horizontal=1;startSize=26;horizontalStack=0;resizeParent=1;resizeParentMax=0;resizeLast=0;collapsible=1;marginBottom=0;align=center;fontSize=14;fillColor=#f5f5f5;strokeColor=#666666;fontColor=#333333;" vertex="1" parent="1">
          <mxGeometry x="560" y="126" width="160" height="134" as="geometry" />
        </mxCell>
        <mxCell id="aSY4xwyYl6IpOgJZGuyS-16" value="&lt;u&gt;ID&lt;/u&gt;" style="text;strokeColor=none;fillColor=none;spacingLeft=4;spacingRight=4;overflow=hidden;rotatable=0;points=[[0,0.5],[1,0.5]];portConstraint=eastwest;fontSize=12;whiteSpace=wrap;html=1;" vertex="1" parent="aSY4xwyYl6IpOgJZGuyS-15">
          <mxGeometry y="26" width="160" height="24" as="geometry" />
        </mxCell>
        <mxCell id="aSY4xwyYl6IpOgJZGuyS-17" value="Название дисциплины" style="text;strokeColor=none;fillColor=none;spacingLeft=4;spacingRight=4;overflow=hidden;rotatable=0;points=[[0,0.5],[1,0.5]];portConstraint=eastwest;fontSize=12;whiteSpace=wrap;html=1;" vertex="1" parent="aSY4xwyYl6IpOgJZGuyS-15">
          <mxGeometry y="50" width="160" height="20" as="geometry" />
        </mxCell>
        <mxCell id="aSY4xwyYl6IpOgJZGuyS-21" value="Номер зачетки" style="text;strokeColor=none;fillColor=none;spacingLeft=4;spacingRight=4;overflow=hidden;rotatable=0;points=[[0,0.5],[1,0.5]];portConstraint=eastwest;fontSize=12;whiteSpace=wrap;html=1;" vertex="1" parent="aSY4xwyYl6IpOgJZGuyS-15">
          <mxGeometry y="70" width="160" height="24" as="geometry" />
        </mxCell>
        <mxCell id="aSY4xwyYl6IpOgJZGuyS-18" value="Оценка" style="text;strokeColor=none;fillColor=none;spacingLeft=4;spacingRight=4;overflow=hidden;rotatable=0;points=[[0,0.5],[1,0.5]];portConstraint=eastwest;fontSize=12;whiteSpace=wrap;html=1;" vertex="1" parent="aSY4xwyYl6IpOgJZGuyS-15">
          <mxGeometry y="94" width="160" height="20" as="geometry" />
        </mxCell>
        <mxCell id="aSY4xwyYl6IpOgJZGuyS-19" value="Дата" style="text;strokeColor=none;fillColor=none;spacingLeft=4;spacingRight=4;overflow=hidden;rotatable=0;points=[[0,0.5],[1,0.5]];portConstraint=eastwest;fontSize=12;whiteSpace=wrap;html=1;" vertex="1" parent="aSY4xwyYl6IpOgJZGuyS-15">
          <mxGeometry y="114" width="160" height="20" as="geometry" />
        </mxCell>
        <mxCell id="aSY4xwyYl6IpOgJZGuyS-28" value="" style="fontSize=12;html=1;endArrow=ERoneToMany;rounded=0;entryX=1;entryY=0.5;entryDx=0;entryDy=0;exitX=0;exitY=0.5;exitDx=0;exitDy=0;" edge="1" parent="1" source="aSY4xwyYl6IpOgJZGuyS-17" target="zXdkISqvHevH8ZzprFHM-93">
          <mxGeometry width="100" height="100" relative="1" as="geometry">
            <mxPoint x="730" y="172" as="sourcePoint" />
            <mxPoint x="820" y="396" as="targetPoint" />
          </mxGeometry>
        </mxCell>
        <mxCell id="aSY4xwyYl6IpOgJZGuyS-31" value="" style="fontSize=12;html=1;endArrow=ERoneToMany;rounded=0;entryX=0;entryY=0.5;entryDx=0;entryDy=0;exitX=1;exitY=0.5;exitDx=0;exitDy=0;" edge="1" parent="1" source="zXdkISqvHevH8ZzprFHM-80" target="aSY4xwyYl6IpOgJZGuyS-21">
          <mxGeometry width="100" height="100" relative="1" as="geometry">
            <mxPoint x="570" y="196" as="sourcePoint" />
            <mxPoint x="460" y="376" as="targetPoint" />
          </mxGeometry>
        </mxCell>
      </root>
    </mxGraphModel>
  </diagram>
</mxfile>
